<?xml version="1.0" standalone="no"?>
<!DOCTYPE svg PUBLIC "-//W3C//DTD SVG 20010904//EN"
 "http://www.w3.org/TR/2001/REC-SVG-20010904/DTD/svg10.dtd">
<svg version="1.0" xmlns="http://www.w3.org/2000/svg"
 width="300.000000pt" height="300.000000pt" viewBox="0 0 300.000000 300.000000"
 preserveAspectRatio="xMidYMid meet">
<metadata>
Created by potrace 1.11, written by Peter Selinger 2001-2013
</metadata>
<g transform="translate(0.000000,300.000000) scale(0.100000,-0.100000)"
fill="#000000" stroke="none">
<path d="M104 2794 c-57 -37 -107 -113 -98 -149 10 -39 251 -278 348 -344 12
-8 23 -17 26 -21 3 -3 34 -27 70 -53 36 -27 72 -53 81 -60 29 -23 75 -54 299
-207 319 -218 304 -205 338 -280 45 -97 45 -102 18 -167 -62 -147 -80 -323
-44 -437 32 -104 103 -214 188 -292 87 -81 462 -277 905 -474 72 -32 175 -79
230 -106 155 -74 215 -68 315 35 64 66 133 186 177 310 22 63 27 95 29 189 2
134 -10 191 -61 292 -76 150 -172 274 -352 455 -366 369 -604 513 -860 524
-69 3 -121 -9 -201 -46 -54 -25 -75 -26 -150 -9 -40 9 -166 97 -217 152 -5 6
-41 37 -80 70 -38 32 -72 61 -75 64 -10 11 -353 290 -430 350 -96 75 -269 193
-306 210 -58 27 -102 25 -150 -6z m129 -71 c18 -9 27 -18 20 -20 -12 -4 -73
23 -73 32 0 10 21 5 53 -12z"/>
</g>
</svg>
